<svg xmlns="http://www.w3.org/2000/svg" xmlns:xlink="http://www.w3.org/1999/xlink" version="1.1" x="0px" y="0px" viewBox="0 0 100 125" enable-background="new 0 0 100 100" xml:space="preserve"><g><g><path d="M51.624,82.909c-0.829,0-1.5-0.672-1.5-1.5V73.88c0-0.828,0.671-1.5,1.5-1.5s1.5,0.672,1.5,1.5v7.529    C53.124,82.237,52.453,82.909,51.624,82.909z"/><path d="M51.624,51.493c-0.829,0-1.5-0.672-1.5-1.5v-7.529c0-0.828,0.671-1.5,1.5-1.5s1.5,0.672,1.5,1.5v7.529    C53.124,50.821,52.453,51.493,51.624,51.493z"/><path d="M71.096,63.437h-7.528c-0.829,0-1.5-0.672-1.5-1.5s0.671-1.5,1.5-1.5h7.528c0.829,0,1.5,0.672,1.5,1.5    S71.925,63.437,71.096,63.437z"/><path d="M39.68,63.437h-7.527c-0.829,0-1.5-0.672-1.5-1.5s0.671-1.5,1.5-1.5h7.527c0.829,0,1.5,0.672,1.5,1.5    S40.508,63.437,39.68,63.437z"/><path d="M65.394,77.206c-0.384,0-0.768-0.146-1.061-0.439l-5.324-5.324c-0.586-0.586-0.586-1.535,0-2.121s1.535-0.586,2.121,0    l5.324,5.324c0.586,0.586,0.586,1.535,0,2.121C66.161,77.06,65.777,77.206,65.394,77.206z"/><path d="M43.179,54.991c-0.384,0-0.768-0.146-1.061-0.439l-5.324-5.322c-0.586-0.585-0.586-1.535,0-2.121    c0.586-0.586,1.536-0.586,2.122,0l5.324,5.322c0.586,0.585,0.586,1.535,0,2.121C43.947,54.845,43.563,54.991,43.179,54.991z"/><path d="M60.07,54.991c-0.384,0-0.768-0.146-1.061-0.439c-0.586-0.586-0.586-1.535,0-2.121l5.323-5.324    c0.585-0.586,1.535-0.586,2.121,0s0.586,1.535,0,2.121l-5.323,5.324C60.838,54.845,60.454,54.991,60.07,54.991z"/><path d="M37.855,77.206c-0.384,0-0.768-0.146-1.061-0.439c-0.585-0.586-0.585-1.536,0-2.121l5.324-5.322    c0.586-0.586,1.536-0.586,2.122,0c0.585,0.586,0.585,1.536,0,2.121l-5.324,5.322C38.623,77.06,38.239,77.206,37.855,77.206z"/></g><path d="M51.625,71.259c-5.141,0-9.323-4.182-9.323-9.322s4.182-9.322,9.323-9.322s9.323,4.182,9.323,9.322   S56.765,71.259,51.625,71.259z M51.625,55.614c-3.486,0-6.323,2.836-6.323,6.322s2.836,6.322,6.323,6.322s6.323-2.836,6.323-6.322   S55.111,55.614,51.625,55.614z"/><g><g><path d="M77.975,63.437h-1.566c-0.829,0-1.5-0.672-1.5-1.5s0.671-1.5,1.5-1.5h1.566c5.779,0,10.48-4.7,10.48-10.479     c0-5.779-4.702-10.48-10.48-10.48c-0.862,0-1.754,0.119-2.649,0.354c-0.423,0.109-0.876,0.032-1.237-0.221     c-0.36-0.251-0.592-0.646-0.635-1.084c-0.943-9.608-8.943-16.854-18.61-16.854c-7.898,0-14.978,5.013-17.616,12.475     c-0.162,0.459-0.537,0.81-1.004,0.943c-0.465,0.133-0.97,0.031-1.35-0.274c-2.586-2.081-5.704-3.181-9.017-3.181     c-7.94,0-14.4,6.46-14.4,14.4s6.459,14.4,14.399,14.4h1.179c0.829,0,1.5,0.672,1.5,1.5s-0.671,1.5-1.5,1.5h-1.179     c-9.594,0-17.399-7.806-17.399-17.4s7.806-17.4,17.4-17.4c3.284,0,6.514,0.944,9.281,2.689     c3.509-7.642,11.198-12.652,19.706-12.652c10.663,0,19.578,7.598,21.374,17.927c0.591-0.081,1.178-0.122,1.758-0.122     c7.433,0,13.48,6.047,13.48,13.48C91.455,57.39,85.408,63.437,77.975,63.437z"/><path fill="none" stroke="#000000" stroke-width="3" stroke-linecap="round" stroke-linejoin="round" stroke-miterlimit="10" d="     M76.408,61.937"/><path fill="none" stroke="#000000" stroke-width="3" stroke-linecap="round" stroke-linejoin="round" stroke-miterlimit="10" d="     M27.033,61.937"/></g></g></g><text x="0" y="115" fill="#000000" font-size="5px" font-weight="bold" font-family="'Helvetica Neue', Helvetica, Arial-Unicode, Arial, Sans-serif">Created by Joost Haar</text><text x="0" y="120" fill="#000000" font-size="5px" font-weight="bold" font-family="'Helvetica Neue', Helvetica, Arial-Unicode, Arial, Sans-serif">from the Noun Project</text></svg>